<svg width="680" height="980" viewBox="0 0 680 980" xmlns="http://www.w3.org/2000/svg" style="background:#ffffff;font-family:Arial,Helvetica,sans-serif">
<defs>
<marker id="arrow" viewBox="0 0 10 10" refX="8" refY="5" markerWidth="6" markerHeight="6" orient="auto-start-reverse">
<path d="M2 1L8 5L2 9" fill="none" stroke="context-stroke" stroke-width="1.5" stroke-linecap="round" stroke-linejoin="round"/>
</marker>
</defs>

<!-- ── background sections ── -->
<rect x="10" y="10" width="660" height="50" rx="6" fill="#F8F8F6" stroke="#D3D1C7" stroke-width="0.5"/>
<rect x="10" y="76" width="660" height="50" rx="6" fill="#F8F8F6" stroke="#D3D1C7" stroke-width="0.5"/>

<!-- USER -->
<rect x="260" y="18" width="160" height="44" rx="8" fill="#F1EFE8" stroke="#888780" stroke-width="0.8"/>
<text x="340" y="36" text-anchor="middle" dominant-baseline="central" font-size="13" font-weight="600" fill="#2C2C2A">사용자 / 클라이언트</text>
<text x="340" y="52" text-anchor="middle" dominant-baseline="central" font-size="11" fill="#5F5E5A">Chat · Webhook · API 호출</text>

<!-- arrow user→nginx -->
<line x1="340" y1="62" x2="340" y2="76" stroke="#888780" stroke-width="1.5" marker-end="url(#arrow)"/>

<!-- NGINX -->
<rect x="200" y="76" width="280" height="44" rx="8" fill="#F1EFE8" stroke="#888780" stroke-width="0.8"/>
<text x="340" y="94" text-anchor="middle" dominant-baseline="central" font-size="13" font-weight="600" fill="#2C2C2A">Nginx reverse proxy</text>
<text x="340" y="110" text-anchor="middle" dominant-baseline="central" font-size="11" fill="#5F5E5A">Port 80  ·  /n8n  /api  /chat  /qdrant</text>

<!-- nginx branches -->
<path d="M260 120 L150 120 L150 190" fill="none" stroke="#888780" stroke-width="1" marker-end="url(#arrow)"/>
<line x1="340" y1="120" x2="340" y2="190" stroke="#888780" stroke-width="1" marker-end="url(#arrow)"/>
<path d="M420 120 L530 120 L530 190" fill="none" stroke="#888780" stroke-width="1" marker-end="url(#arrow)"/>

<!-- n8n -->
<rect x="70" y="190" width="160" height="56" rx="8" fill="#EEEDFE" stroke="#534AB7" stroke-width="0.8"/>
<text x="150" y="210" text-anchor="middle" dominant-baseline="central" font-size="13" font-weight="600" fill="#26215C">n8n</text>
<text x="150" y="226" text-anchor="middle" dominant-baseline="central" font-size="11" fill="#3C3489">워크플로우 엔진</text>
<text x="150" y="238" text-anchor="middle" dominant-baseline="central" font-size="11" fill="#534AB7">Port 5678</text>

<!-- Open WebUI -->
<rect x="260" y="190" width="160" height="56" rx="8" fill="#E1F5EE" stroke="#0F6E56" stroke-width="0.8"/>
<text x="340" y="210" text-anchor="middle" dominant-baseline="central" font-size="13" font-weight="600" fill="#04342C">Open WebUI</text>
<text x="340" y="226" text-anchor="middle" dominant-baseline="central" font-size="11" fill="#085041">채팅 UI · 모델 관리</text>
<text x="340" y="238" text-anchor="middle" dominant-baseline="central" font-size="11" fill="#0F6E56">Port 3000</text>

<!-- RAG API -->
<rect x="450" y="190" width="160" height="56" rx="8" fill="#E1F5EE" stroke="#0F6E56" stroke-width="0.8"/>
<text x="530" y="210" text-anchor="middle" dominant-baseline="central" font-size="13" font-weight="600" fill="#04342C">RAG API</text>
<text x="530" y="226" text-anchor="middle" dominant-baseline="central" font-size="11" fill="#085041">FastAPI 백엔드</text>
<text x="530" y="238" text-anchor="middle" dominant-baseline="central" font-size="11" fill="#0F6E56">Port 8000</text>

<!-- n8n → RAG API dashed -->
<path d="M230 218 L450 218" fill="none" stroke="#5DCAA5" stroke-width="1.2" stroke-dasharray="5 3" marker-end="url(#arrow)"/>
<text x="340" y="212" text-anchor="middle" font-size="10" fill="#0F6E56">HTTP 요청</text>

<!-- n8n → workflows -->
<line x1="150" y1="246" x2="150" y2="296" stroke="#7F77DD" stroke-width="1.5" marker-end="url(#arrow)"/>

<!-- WORKFLOW CONTAINER -->
<rect x="30" y="296" width="240" height="144" rx="10" fill="#EEEDFE" stroke="#534AB7" stroke-width="0.8"/>
<text x="150" y="316" text-anchor="middle" dominant-baseline="central" font-size="13" font-weight="600" fill="#26215C">n8n 워크플로우</text>

<rect x="46" y="326" width="208" height="32" rx="6" fill="#F1EFE8" stroke="#AFA9EC" stroke-width="0.5"/>
<text x="70" y="342" dominant-baseline="central" font-size="11" font-weight="700" fill="#3C3489">01</text>
<text x="86" y="342" dominant-baseline="central" font-size="11" fill="#5F5E5A">문서 인덱싱 파이프라인</text>

<rect x="46" y="364" width="208" height="32" rx="6" fill="#F1EFE8" stroke="#AFA9EC" stroke-width="0.5"/>
<text x="70" y="380" dominant-baseline="central" font-size="11" font-weight="700" fill="#3C3489">02</text>
<text x="86" y="380" dominant-baseline="central" font-size="11" fill="#5F5E5A">추론 질의응답 파이프라인</text>

<rect x="46" y="402" width="208" height="32" rx="6" fill="#F1EFE8" stroke="#AFA9EC" stroke-width="0.5"/>
<text x="70" y="418" dominant-baseline="central" font-size="11" font-weight="700" fill="#3C3489">03</text>
<text x="86" y="418" dominant-baseline="central" font-size="11" fill="#5F5E5A">서비스 모니터링</text>

<!-- RAG API → pipeline -->
<line x1="530" y1="246" x2="530" y2="296" stroke="#1D9E75" stroke-width="1.5" marker-end="url(#arrow)"/>

<!-- PIPELINE CONTAINER -->
<rect x="390" y="296" width="264" height="204" rx="10" fill="#E1F5EE" stroke="#0F6E56" stroke-width="0.8"/>
<text x="522" y="316" text-anchor="middle" dominant-baseline="central" font-size="13" font-weight="600" fill="#04342C">추론 RAG 파이프라인</text>

<rect x="406" y="328" width="232" height="30" rx="6" fill="#F1EFE8" stroke="#9FE1CB" stroke-width="0.5"/>
<text x="522" y="343" text-anchor="middle" dominant-baseline="central" font-size="11" fill="#444441">STEP 1  질문 분석  (Intent · Complexity)</text>

<rect x="406" y="364" width="232" height="30" rx="6" fill="#F1EFE8" stroke="#9FE1CB" stroke-width="0.5"/>
<text x="522" y="379" text-anchor="middle" dominant-baseline="central" font-size="11" fill="#444441">STEP 2  쿼리 변환  (HyDE · Rewrite · Decomp)</text>

<rect x="406" y="400" width="232" height="30" rx="6" fill="#F1EFE8" stroke="#9FE1CB" stroke-width="0.5"/>
<text x="522" y="415" text-anchor="middle" dominant-baseline="central" font-size="11" fill="#444441">STEP 3  Self-RAG 검색 루프</text>

<rect x="406" y="436" width="232" height="30" rx="6" fill="#F1EFE8" stroke="#9FE1CB" stroke-width="0.5"/>
<text x="522" y="451" text-anchor="middle" dominant-baseline="central" font-size="11" fill="#444441">STEP 4  CoT 답변  · Hallucination 검증</text>

<!-- self-rag loop -->
<path d="M638 415 Q656 415 656 390 Q656 365 638 365" fill="none" stroke="#1D9E75" stroke-width="1" stroke-dasharray="3 3" marker-end="url(#arrow)"/>
<text x="661" y="392" font-size="10" fill="#0F6E56" dominant-baseline="central">loop</text>

<!-- pipeline → ollama -->
<path d="M522 500 L522 532 L420 532 L420 568" fill="none" stroke="#1D9E75" stroke-width="1.2" marker-end="url(#arrow)"/>
<!-- pipeline → qdrant -->
<path d="M522 500 L522 532 L590 532 L590 568" fill="none" stroke="#185FA5" stroke-width="1.2" marker-end="url(#arrow)"/>

<!-- OLLAMA -->
<rect x="340" y="568" width="160" height="56" rx="8" fill="#FAEEDA" stroke="#854F0B" stroke-width="0.8"/>
<text x="420" y="588" text-anchor="middle" dominant-baseline="central" font-size="13" font-weight="600" fill="#412402">Ollama</text>
<text x="420" y="604" text-anchor="middle" dominant-baseline="central" font-size="11" fill="#633806">LLM · Embedding</text>
<text x="420" y="616" text-anchor="middle" dominant-baseline="central" font-size="11" fill="#854F0B">Port 11434</text>

<!-- QDRANT -->
<rect x="520" y="568" width="140" height="56" rx="8" fill="#E6F1FB" stroke="#185FA5" stroke-width="0.8"/>
<text x="590" y="588" text-anchor="middle" dominant-baseline="central" font-size="13" font-weight="600" fill="#042C53">Qdrant</text>
<text x="590" y="604" text-anchor="middle" dominant-baseline="central" font-size="11" fill="#0C447C">벡터 DB</text>
<text x="590" y="616" text-anchor="middle" dominant-baseline="central" font-size="11" fill="#185FA5">Port 6333</text>

<!-- ollama → models -->
<line x1="420" y1="624" x2="420" y2="662" stroke="#BA7517" stroke-width="1.5" marker-end="url(#arrow)"/>

<rect x="300" y="662" width="240" height="56" rx="8" fill="#FAEEDA" stroke="#854F0B" stroke-width="0.8"/>
<text x="420" y="678" text-anchor="middle" dominant-baseline="central" font-size="13" font-weight="600" fill="#412402">AI 모델 (로컬)</text>
<rect x="310" y="692" width="110" height="20" rx="4" fill="#F1EFE8" stroke="#D3D1C7" stroke-width="0.5"/>
<text x="365" y="702" text-anchor="middle" dominant-baseline="central" font-size="10" fill="#444441">EXAONE 3.5 / 4.0</text>
<rect x="426" y="692" width="104" height="20" rx="4" fill="#F1EFE8" stroke="#D3D1C7" stroke-width="0.5"/>
<text x="478" y="702" text-anchor="middle" dominant-baseline="central" font-size="10" fill="#444441">bge-m3  (embed)</text>

<!-- qdrant → vector index -->
<line x1="590" y1="624" x2="590" y2="662" stroke="#185FA5" stroke-width="1.5" marker-end="url(#arrow)"/>
<rect x="520" y="662" width="140" height="44" rx="8" fill="#E6F1FB" stroke="#185FA5" stroke-width="0.8"/>
<text x="590" y="680" text-anchor="middle" dominant-baseline="central" font-size="13" font-weight="600" fill="#042C53">벡터 인덱스</text>
<text x="590" y="696" text-anchor="middle" dominant-baseline="central" font-size="11" fill="#0C447C">Cosine · IVFFlat</text>

<!-- PostgreSQL connections -->
<path d="M150 440 L150 752 L260 752" fill="none" stroke="#888780" stroke-width="1" stroke-dasharray="4 3" marker-end="url(#arrow)"/>
<path d="M590 706 L590 732 L420 732 L420 752 L260 752" fill="none" stroke="#888780" stroke-width="1" stroke-dasharray="4 3" marker-end="url(#arrow)"/>

<!-- POSTGRESQL -->
<rect x="260" y="734" width="240" height="56" rx="8" fill="#F1EFE8" stroke="#888780" stroke-width="0.8"/>
<text x="380" y="752" text-anchor="middle" dominant-baseline="central" font-size="13" font-weight="600" fill="#2C2C2A">PostgreSQL</text>
<text x="380" y="768" text-anchor="middle" dominant-baseline="central" font-size="11" fill="#5F5E5A">n8n DB · ragdb · pgvector</text>
<text x="380" y="780" text-anchor="middle" dominant-baseline="central" font-size="11" fill="#888780">Port 5432</text>

<!-- ── DGX SPARK NOTE ── -->
<rect x="30" y="810" width="620" height="36" rx="6" fill="#FFF8E7" stroke="#EF9F27" stroke-width="0.8"/>
<text x="340" y="828" text-anchor="middle" dominant-baseline="central" font-size="12" fill="#633806">DGX Spark  (gx10-ai-210)  ·  NVIDIA GPU  →  Ollama 컨테이너 직접 마운트  (nvidia-docker runtime)</text>

<!-- ── LEGEND ── -->
<rect x="30" y="858" width="620" height="106" rx="8" fill="none" stroke="#D3D1C7" stroke-width="0.8"/>
<text x="46" y="876" dominant-baseline="central" font-size="12" font-weight="600" fill="#2C2C2A">범례</text>

<rect x="46" y="892" width="12" height="12" rx="3" fill="#EEEDFE" stroke="#534AB7" stroke-width="0.5"/>
<text x="64" y="899" dominant-baseline="central" font-size="11" fill="#444441">워크플로우 레이어</text>
<rect x="196" y="892" width="12" height="12" rx="3" fill="#E1F5EE" stroke="#0F6E56" stroke-width="0.5"/>
<text x="214" y="899" dominant-baseline="central" font-size="11" fill="#444441">서비스 레이어</text>
<rect x="346" y="892" width="12" height="12" rx="3" fill="#FAEEDA" stroke="#854F0B" stroke-width="0.5"/>
<text x="364" y="899" dominant-baseline="central" font-size="11" fill="#444441">AI 모델 레이어</text>
<rect x="496" y="892" width="12" height="12" rx="3" fill="#E6F1FB" stroke="#185FA5" stroke-width="0.5"/>
<text x="514" y="899" dominant-baseline="central" font-size="11" fill="#444441">벡터 DB 레이어</text>

<line x1="46" y1="924" x2="86" y2="924" stroke="#888780" stroke-width="1.5" marker-end="url(#arrow)"/>
<text x="94" y="924" dominant-baseline="central" font-size="11" fill="#444441">동기 요청</text>
<line x1="196" y1="924" x2="236" y2="924" stroke="#888780" stroke-width="1" stroke-dasharray="4 3" marker-end="url(#arrow)"/>
<text x="244" y="924" dominant-baseline="central" font-size="11" fill="#444441">비동기 / 데이터 흐름</text>
<line x1="396" y1="924" x2="436" y2="924" stroke="#1D9E75" stroke-width="1" stroke-dasharray="3 3" marker-end="url(#arrow)"/>
<text x="444" y="924" dominant-baseline="central" font-size="11" fill="#444441">Self-RAG 루프</text>

<text x="46" y="950" dominant-baseline="central" font-size="10" fill="#888780">hymakina-ai-rag-0.3  ·  n8n + FastAPI + Qdrant + Ollama + PostgreSQL  ·  완전 폐쇄망 로컬 운영</text>
</svg>
